P3 24 36 255
119 94 86
185 138 121
95 118 151
87 101 64
124 120 168
89 179 161
210 115 48
68 85 161
184 77 92
87 55 100
149 178 60
217 150 43
44 60 139
63 139 70
165 53 58
226 189 20
178 79 142
0 125 157
235 234 232
190 191 193
151 152 154
113 113 114
79 80 82
49 49 52
119 94 86
185 138 121
95 118 151
87 101 64
124 120 168
89 179 161
210 115 48
68 85 161
184 77 92
87 55 100
149 178 60
217 150 43
44 60 139
63 139 70
165 53 58
226 189 20
178 79 142
0 125 157
235 234 232
190 191 193
151 152 154
113 113 114
79 80 82
49 49 52
119 94 86
185 138 121
95 118 151
87 101 64
124 120 168
89 179 161
210 115 48
68 85 161
184 77 92
87 55 100
149 178 60
217 150 43
44 60 139
63 139 70
165 53 58
226 189 20
178 79 142
0 125 157
235 234 232
190 191 193
151 152 154
113 113 114
79 80 82
49 49 52
119 94 86
185 138 121
95 118 151
87 101 64
124 120 168
89 179 161
210 115 48
68 85 161
184 77 92
87 55 100
149 178 60
217 150 43
44 60 139
63 139 70
165 53 58
226 189 20
178 79 142
0 125 157
235 234 232
190 191 193
151 152 154
113 113 114
79 80 82
49 49 52
119 94 86
185 138 121
95 118 151
87 101 64
124 120 168
89 179 161
210 115 48
68 85 161
184 77 92
87 55 100
149 178 60
217 150 43
44 60 139
63 139 70
165 53 58
226 189 20
178 79 142
0 125 157
235 234 232
190 191 193
151 152 154
113 113 114
79 80 82
49 49 52
119 94 86
185 138 121
95 118 151
87 101 64
124 120 168
89 179 161
210 115 48
68 85 161
184 77 92
87 55 100
149 178 60
217 150 43
44 60 139
63 139 70
165 53 58
226 189 20
178 79 142
0 125 157
235 234 232
190 191 193
151 152 154
113 113 114
79 80 82
49 49 52
119 94 86
185 138 121
95 118 151
87 101 64
124 120 168
89 179 161
210 115 48
68 85 161
184 77 92
87 55 100
149 178 60
217 150 43
44 60 139
63 139 70
165 53 58
226 189 20
178 79 142
0 125 157
235 234 232
190 191 193
151 152 154
113 113 114
79 80 82
49 49 52
119 94 86
185 138 121
95 118 151
87 101 64
124 120 168
89 179 161
210 115 48
68 85 161
184 77 92
87 55 100
149 178 60
217 150 43
44 60 139
63 139 70
165 53 58
226 189 20
178 79 142
0 125 157
235 234 232
190 191 193
151 152 154
113 113 114
79 80 82
49 49 52
119 94 86
185 138 121
95 118 151
87 101 64
124 120 168
89 179 161
210 115 48
68 85 161
184 77 92
87 55 100
149 178 60
217 150 43
44 60 139
63 139 70
165 53 58
226 189 20
178 79 142
0 125 157
235 234 232
190 191 193
151 152 154
113 113 114
79 80 82
49 49 52
119 94 86
185 138 121
95 118 151
87 101 64
124 120 168
89 179 161
210 115 48
68 85 161
184 77 92
87 55 100
149 178 60
217 150 43
44 60 139
63 139 70
165 53 58
226 189 20
178 79 142
0 125 157
235 234 232
190 191 193
151 152 154
113 113 114
79 80 82
49 49 52
119 94 86
185 138 121
95 118 151
87 101 64
124 120 168
89 179 161
210 115 48
68 85 161
184 77 92
87 55 100
149 178 60
217 150 43
44 60 139
63 139 70
165 53 58
226 189 20
178 79 142
0 125 157
235 234 232
190 191 193
151 152 154
113 113 114
79 80 82
49 49 52
119 94 86
185 138 121
95 118 151
87 101 64
124 120 168
89 179 161
210 115 48
68 85 161
184 77 92
87 55 100
149 178 60
217 150 43
44 60 139
63 139 70
165 53 58
226 189 20
178 79 142
0 125 157
235 234 232
190 191 193
151 152 154
113 113 114
79 80 82
49 49 52
119 94 86
185 138 121
95 118 151
87 101 64
124 120 168
89 179 161
210 115 48
68 85 161
184 77 92
87 55 100
149 178 60
217 150 43
44 60 139
63 139 70
165 53 58
226 189 20
178 79 142
0 125 157
235 234 232
190 191 193
151 152 154
113 113 114
79 80 82
49 49 52
119 94 86
185 138 121
95 118 151
87 101 64
124 120 168
89 179 161
210 115 48
68 85 161
184 77 92
87 55 100
149 178 60
217 150 43
44 60 139
63 139 70
165 53 58
226 189 20
178 79 142
0 125 157
235 234 232
190 191 193
151 152 154
113 113 114
79 80 82
49 49 52
119 94 86
185 138 121
95 118 151
87 101 64
124 120 168
89 179 161
210 115 48
68 85 161
184 77 92
87 55 100
149 178 60
217 150 43
44 60 139
63 139 70
165 53 58
226 189 20
178 79 142
0 125 157
235 234 232
190 191 193
151 152 154
113 113 114
79 80 82
49 49 52
119 94 86
185 138 121
95 118 151
87 101 64
124 120 168
89 179 161
210 115 48
68 85 161
184 77 92
87 55 100
149 178 60
217 150 43
44 60 139
63 139 70
165 53 58
226 189 20
178 79 142
0 125 157
235 234 232
190 191 193
151 152 154
113 113 114
79 80 82
49 49 52
119 94 86
185 138 121
95 118 151
87 101 64
124 120 168
89 179 161
210 115 48
68 85 161
184 77 92
87 55 100
149 178 60
217 150 43
44 60 139
63 139 70
165 53 58
226 189 20
178 79 142
0 125 157
235 234 232
190 191 193
151 152 154
113 113 114
79 80 82
49 49 52
119 94 86
185 138 121
95 118 151
87 101 64
124 120 168
89 179 161
210 115 48
68 85 161
184 77 92
87 55 100
149 178 60
217 150 43
44 60 139
63 139 70
165 53 58
226 189 20
178 79 142
0 125 157
235 234 232
190 191 193
151 152 154
113 113 114
79 80 82
49 49 52
119 94 86
185 138 121
95 118 151
87 101 64
124 120 168
89 179 161
210 115 48
68 85 161
184 77 92
87 55 100
149 178 60
217 150 43
44 60 139
63 139 70
165 53 58
226 189 20
178 79 142
0 125 157
235 234 232
190 191 193
151 152 154
113 113 114
79 80 82
49 49 52
119 94 86
185 138 121
95 118 151
87 101 64
124 120 168
89 179 161
210 115 48
68 85 161
184 77 92
87 55 100
149 178 60
217 150 43
44 60 139
63 139 70
165 53 58
226 189 20
178 79 142
0 125 157
235 234 232
190 191 193
151 152 154
113 113 114
79 80 82
49 49 52
119 94 86
185 138 121
95 118 151
87 101 64
124 120 168
89 179 161
210 115 48
68 85 161
184 77 92
87 55 100
149 178 60
217 150 43
44 60 139
63 139 70
165 53 58
226 189 20
178 79 142
0 125 157
235 234 232
190 191 193
151 152 154
113 113 114
79 80 82
49 49 52
119 94 86
185 138 121
95 118 151
87 101 64
124 120 168
89 179 161
210 115 48
68 85 161
184 77 92
87 55 100
149 178 60
217 150 43
44 60 139
63 139 70
165 53 58
226 189 20
178 79 142
0 125 157
235 234 232
190 191 193
151 152 154
113 113 114
79 80 82
49 49 52
119 94 86
185 138 121
95 118 151
87 101 64
124 120 168
89 179 161
210 115 48
68 85 161
184 77 92
87 55 100
149 178 60
217 150 43
44 60 139
63 139 70
165 53 58
226 189 20
178 79 142
0 125 157
235 234 232
190 191 193
151 152 154
113 113 114
79 80 82
49 49 52
119 94 86
185 138 121
95 118 151
87 101 64
124 120 168
89 179 161
210 115 48
68 85 161
184 77 92
87 55 100
149 178 60
217 150 43
44 60 139
63 139 70
165 53 58
226 189 20
178 79 142
0 125 157
235 234 232
190 191 193
151 152 154
113 113 114
79 80 82
49 49 52
119 94 86
185 138 121
95 118 151
87 101 64
124 120 168
89 179 161
210 115 48
68 85 161
184 77 92
87 55 100
149 178 60
217 150 43
44 60 139
63 139 70
165 53 58
226 189 20
178 79 142
0 125 157
235 234 232
190 191 193
151 152 154
113 113 114
79 80 82
49 49 52
119 94 86
185 138 121
95 118 151
87 101 64
124 120 168
89 179 161
210 115 48
68 85 161
184 77 92
87 55 100
149 178 60
217 150 43
44 60 139
63 139 70
165 53 58
226 189 20
178 79 142
0 125 157
235 234 232
190 191 193
151 152 154
113 113 114
79 80 82
49 49 52
119 94 86
185 138 121
95 118 151
87 101 64
124 120 168
89 179 161
210 115 48
68 85 161
184 77 92
87 55 100
149 178 60
217 150 43
44 60 139
63 139 70
165 53 58
226 189 20
178 79 142
0 125 157
235 234 232
190 191 193
151 152 154
113 113 114
79 80 82
49 49 52
119 94 86
185 138 121
95 118 151
87 101 64
124 120 168
89 179 161
210 115 48
68 85 161
184 77 92
87 55 100
149 178 60
217 150 43
44 60 139
63 139 70
165 53 58
226 189 20
178 79 142
0 125 157
235 234 232
190 191 193
151 152 154
113 113 114
79 80 82
49 49 52
119 94 86
185 138 121
95 118 151
87 101 64
124 120 168
89 179 161
210 115 48
68 85 161
184 77 92
87 55 100
149 178 60
217 150 43
44 60 139
63 139 70
165 53 58
226 189 20
178 79 142
0 125 157
235 234 232
190 191 193
151 152 154
113 113 114
79 80 82
49 49 52
119 94 86
185 138 121
95 118 151
87 101 64
124 120 168
89 179 161
210 115 48
68 85 161
184 77 92
87 55 100
149 178 60
217 150 43
44 60 139
63 139 70
165 53 58
226 189 20
178 79 142
0 125 157
235 234 232
190 191 193
151 152 154
113 113 114
79 80 82
49 49 52
119 94 86
185 138 121
95 118 151
87 101 64
124 120 168
89 179 161
210 115 48
68 85 161
184 77 92
87 55 100
149 178 60
217 150 43
44 60 139
63 139 70
165 53 58
226 189 20
178 79 142
0 125 157
235 234 232
190 191 193
151 152 154
113 113 114
79 80 82
49 49 52
119 94 86
185 138 121
95 118 151
87 101 64
124 120 168
89 179 161
210 115 48
68 85 161
184 77 92
87 55 100
149 178 60
217 150 43
44 60 139
63 139 70
165 53 58
226 189 20
178 79 142
0 125 157
235 234 232
190 191 193
151 152 154
113 113 114
79 80 82
49 49 52
119 94 86
185 138 121
95 118 151
87 101 64
124 120 168
89 179 161
210 115 48
68 85 161
184 77 92
87 55 100
149 178 60
217 150 43
44 60 139
63 139 70
165 53 58
226 189 20
178 79 142
0 125 157
235 234 232
190 191 193
151 152 154
113 113 114
79 80 82
49 49 52
119 94 86
185 138 121
95 118 151
87 101 64
124 120 168
89 179 161
210 115 48
68 85 161
184 77 92
87 55 100
149 178 60
217 150 43
44 60 139
63 139 70
165 53 58
226 189 20
178 79 142
0 125 157
235 234 232
190 191 193
151 152 154
113 113 114
79 80 82
49 49 52
119 94 86
185 138 121
95 118 151
87 101 64
124 120 168
89 179 161
210 115 48
68 85 161
184 77 92
87 55 100
149 178 60
217 150 43
44 60 139
63 139 70
165 53 58
226 189 20
178 79 142
0 125 157
235 234 232
190 191 193
151 152 154
113 113 114
79 80 82
49 49 52
119 94 86
185 138 121
95 118 151
87 101 64
124 120 168
89 179 161
210 115 48
68 85 161
184 77 92
87 55 100
149 178 60
217 150 43
44 60 139
63 139 70
165 53 58
226 189 20
178 79 142
0 125 157
235 234 232
190 191 193
151 152 154
113 113 114
79 80 82
49 49 52
